# xmcd
#
# Track frame offsets:
#	150
#	13312
#	32855
#	49885
#	59478
#	81223
#	88121
#	108490
#	121494
#	137312
#	148739
#	161595
#	187408
#
# Disc length: 2668 seconds
# Revision: 0
# Processed by: cddbd v1.5.2PL0 Copyright (c) Steve Scherf et al.
# Submitted via: dBpowerAMP V12.0
#
DISCID=c00a6a0d
DTITLE=R.J. Mischo - Make It Good
DYEAR=2012
DGENRE=Blues
TTITLE0=Trouble Belt
TTITLE1=The Frozen Pickle
TTITLE2=Make It Good
TTITLE3=Papa's St. Special
TTITLE4=Minnesota Woman
TTITLE5=Arumbula, Pt. 1
TTITLE6=Not Your Good Man
TTITLE7=I Got You Covered
TTITLE8=Up To The Brim
TTITLE9=The Biscuit Is Back
TTITLE10=Elevator Juice
TTITLE11=All Over Again
TTITLE12=Arumbula, Pt. 2
EXTD=
EXTT0=
EXTT1=
EXTT2=
EXTT3=
EXTT4=
EXTT5=
EXTT6=
EXTT7=
EXTT8=
EXTT9=
EXTT10=
EXTT11=
EXTT12=
PLAYORDER=
